<?xml version="1.0" encoding="UTF-8"?>
<svg xmlns="http://www.w3.org/2000/svg" xmlns:xlink="http://www.w3.org/1999/xlink" width="512px" height="512px" viewBox="0 0 512 512" version="1.1">
<g id="surface1">
<path style=" stroke:none;fill-rule:nonzero;fill:rgb(87.843137%,30.980392%,37.254902%);fill-opacity:1;" d="M 512 256 C 512 397.386719 397.386719 512 256 512 C 114.613281 512 0 397.386719 0 256 C 0 114.613281 114.613281 0 256 0 C 397.386719 0 512 114.613281 512 256 Z M 512 256 "/>
<path style=" stroke:none;fill-rule:nonzero;fill:rgb(100%,100%,100%);fill-opacity:1;" d="M 107.054688 124.929688 C 107.054688 115.054688 115.054688 107.054688 124.929688 107.054688 L 256 107.054688 L 330.472656 169.613281 L 330.472656 387.070312 C 330.472656 396.945312 322.472656 404.945312 312.597656 404.945312 L 124.929688 404.945312 C 115.054688 404.945312 107.054688 396.945312 107.054688 387.070312 Z M 107.054688 124.929688 "/>
<path style=" stroke:none;fill-rule:nonzero;fill:rgb(94.117647%,94.509804%,94.509804%);fill-opacity:1;" d="M 256 107.054688 L 256 151.738281 C 256 161.609375 264 169.613281 273.875 169.613281 L 330.472656 169.613281 Z M 256 107.054688 "/>
<path style=" stroke:none;fill-rule:nonzero;fill:rgb(95.686275%,81.568627%,63.137255%);fill-opacity:1;" d="M 358.398438 193.164062 L 381.671875 144.289062 L 404.945312 193.164062 L 404.945312 372.363281 L 358.398438 372.363281 Z M 358.398438 193.164062 "/>
<path style=" stroke:none;fill-rule:nonzero;fill:rgb(92.941176%,73.72549%,48.627451%);fill-opacity:1;" d="M 404.945312 218.761719 L 404.945312 193.164062 L 381.671875 144.289062 L 381.671875 218.761719 Z M 404.945312 218.761719 "/>
<path style=" stroke:none;fill-rule:nonzero;fill:rgb(96.862745%,57.647059%,57.254902%);fill-opacity:1;" d="M 404.945312 390.980469 C 404.945312 398.695312 398.695312 404.945312 390.980469 404.945312 L 372.363281 404.945312 C 364.652344 404.945312 358.398438 398.695312 358.398438 390.980469 L 358.398438 381.671875 L 404.945312 381.671875 Z M 404.945312 390.980469 "/>
<path style=" stroke:none;fill-rule:nonzero;fill:rgb(88.627451%,89.411765%,89.803922%);fill-opacity:1;" d="M 288.582031 209.453125 C 288.582031 212.015625 286.488281 214.109375 283.925781 214.109375 L 214.109375 214.109375 C 211.550781 214.109375 209.453125 212.015625 209.453125 209.453125 C 209.453125 206.894531 211.550781 204.800781 214.109375 204.800781 L 283.925781 204.800781 C 286.488281 204.800781 288.582031 206.894531 288.582031 209.453125 Z M 288.582031 209.453125 "/>
<path style=" stroke:none;fill-rule:nonzero;fill:rgb(88.627451%,89.411765%,89.803922%);fill-opacity:1;" d="M 260.65625 232.726562 C 260.65625 235.289062 258.558594 237.382812 256 237.382812 L 214.109375 237.382812 C 211.550781 237.382812 209.453125 235.289062 209.453125 232.726562 C 209.453125 230.167969 211.550781 228.074219 214.109375 228.074219 L 256 228.074219 C 258.558594 228.074219 260.65625 230.167969 260.65625 232.726562 Z M 260.65625 232.726562 "/>
<path style=" stroke:none;fill-rule:nonzero;fill:rgb(88.627451%,89.411765%,89.803922%);fill-opacity:1;" d="M 288.582031 269.964844 C 288.582031 272.523438 286.488281 274.617188 283.925781 274.617188 L 214.109375 274.617188 C 211.550781 274.617188 209.453125 272.523438 209.453125 269.964844 C 209.453125 267.402344 211.550781 265.308594 214.109375 265.308594 L 283.925781 265.308594 C 286.488281 265.308594 288.582031 267.402344 288.582031 269.964844 Z M 288.582031 269.964844 "/>
<path style=" stroke:none;fill-rule:nonzero;fill:rgb(88.627451%,89.411765%,89.803922%);fill-opacity:1;" d="M 260.65625 293.238281 C 260.65625 295.796875 258.558594 297.890625 256 297.890625 L 214.109375 297.890625 C 211.550781 297.890625 209.453125 295.796875 209.453125 293.238281 C 209.453125 290.675781 211.550781 288.582031 214.109375 288.582031 L 256 288.582031 C 258.558594 288.582031 260.65625 290.675781 260.65625 293.238281 Z M 260.65625 293.238281 "/>
<path style=" stroke:none;fill-rule:nonzero;fill:rgb(88.627451%,89.411765%,89.803922%);fill-opacity:1;" d="M 288.582031 330.472656 C 288.582031 333.03125 286.488281 335.128906 283.925781 335.128906 L 214.109375 335.128906 C 211.550781 335.128906 209.453125 333.03125 209.453125 330.472656 C 209.453125 327.914062 211.550781 325.816406 214.109375 325.816406 L 283.925781 325.816406 C 286.488281 325.816406 288.582031 327.914062 288.582031 330.472656 Z M 288.582031 330.472656 "/>
<path style=" stroke:none;fill-rule:nonzero;fill:rgb(88.627451%,89.411765%,89.803922%);fill-opacity:1;" d="M 260.65625 353.746094 C 260.65625 356.304688 258.558594 358.398438 256 358.398438 L 214.109375 358.398438 C 211.550781 358.398438 209.453125 356.304688 209.453125 353.746094 C 209.453125 351.183594 211.550781 349.089844 214.109375 349.089844 L 256 349.089844 C 258.558594 349.089844 260.65625 351.183594 260.65625 353.746094 Z M 260.65625 353.746094 "/>
<path style=" stroke:none;fill-rule:nonzero;fill:rgb(9.019608%,69.411765%,59.607843%);fill-opacity:1;" d="M 163.222656 242.035156 L 145.65625 224.46875 C 143.835938 222.65625 143.835938 219.703125 145.65625 217.886719 C 147.476562 216.070312 150.421875 216.070312 152.234375 217.886719 L 162.597656 228.25 L 182.605469 204.238281 C 184.253906 202.257812 187.1875 201.992188 189.160156 203.640625 C 191.132812 205.289062 191.402344 208.222656 189.757812 210.195312 Z M 163.222656 242.035156 "/>
<path style=" stroke:none;fill-rule:nonzero;fill:rgb(9.019608%,69.411765%,59.607843%);fill-opacity:1;" d="M 163.222656 302.546875 L 145.65625 284.980469 C 143.835938 283.164062 143.835938 280.214844 145.65625 278.398438 C 147.476562 276.578125 150.421875 276.578125 152.234375 278.398438 L 162.597656 288.757812 L 182.605469 264.746094 C 184.253906 262.769531 187.1875 262.503906 189.160156 264.148438 C 191.132812 265.796875 191.402344 268.730469 189.757812 270.703125 Z M 163.222656 302.546875 "/>
<path style=" stroke:none;fill-rule:nonzero;fill:rgb(9.019608%,69.411765%,59.607843%);fill-opacity:1;" d="M 163.222656 363.054688 L 145.65625 345.488281 C 143.835938 343.671875 143.835938 340.722656 145.65625 338.90625 C 147.476562 337.085938 150.421875 337.085938 152.234375 338.90625 L 162.597656 349.269531 L 182.605469 325.253906 C 184.253906 323.277344 187.1875 323.011719 189.160156 324.660156 C 191.132812 326.308594 191.402344 329.238281 189.757812 331.210938 Z M 163.222656 363.054688 "/>
<path style=" stroke:none;fill-rule:nonzero;fill:rgb(98.039216%,79.607843%,10.588235%);fill-opacity:1;" d="M 358.398438 367.710938 L 404.945312 367.710938 L 404.945312 381.671875 L 358.398438 381.671875 Z M 358.398438 367.710938 "/>
<path style=" stroke:none;fill-rule:nonzero;fill:rgb(98.431373%,88.235294%,34.509804%);fill-opacity:1;" d="M 358.398438 372.363281 L 381.671875 372.363281 L 381.671875 381.671875 L 358.398438 381.671875 Z M 358.398438 372.363281 "/>
<path style=" stroke:none;fill-rule:nonzero;fill:rgb(24.313725%,24.313725%,24.705882%);fill-opacity:1;" d="M 381.734375 144.214844 L 373.089844 162.363281 C 375.472656 165.519531 378.453125 167.488281 381.734375 167.488281 C 385.015625 167.488281 387.992188 165.523438 390.375 162.363281 Z M 381.734375 144.214844 "/>
<path style=" stroke:none;fill-rule:nonzero;fill:rgb(1.568627%,51.764706%,67.058824%);fill-opacity:1;" d="M 393.308594 200.144531 C 387.9375 200.144531 383.414062 196.503906 382.078125 191.558594 C 381.957031 191.105469 381.394531 191.105469 381.273438 191.558594 C 379.933594 196.503906 375.40625 200.144531 370.035156 200.144531 C 365.140625 200.144531 360.945312 197.121094 359.226562 192.832031 C 359.046875 192.382812 358.398438 192.507812 358.398438 192.996094 L 358.398438 372.363281 L 404.945312 372.363281 L 404.945312 192.996094 C 404.945312 192.507812 404.296875 192.386719 404.117188 192.835938 C 402.398438 197.121094 398.207031 200.144531 393.308594 200.144531 Z M 393.308594 200.144531 "/>
<path style=" stroke:none;fill-rule:nonzero;fill:rgb(12.941176%,69.803922%,81.960784%);fill-opacity:1;" d="M 358.398438 372.363281 L 358.398438 193.132812 C 358.398438 192.613281 359.085938 192.484375 359.285156 192.964844 C 361.03125 197.179688 365.1875 200.144531 370.035156 200.144531 C 375.429688 200.144531 379.96875 196.472656 381.285156 191.492188 C 381.351562 191.25 381.671875 191.28125 381.671875 191.535156 L 381.671875 372.363281 Z M 358.398438 372.363281 "/>
<path style=" stroke:none;fill-rule:nonzero;fill:rgb(96.862745%,70.588235%,70.588235%);fill-opacity:1;" d="M 358.398438 381.671875 L 358.398438 390.980469 C 358.398438 398.695312 364.652344 404.945312 372.363281 404.945312 L 381.671875 404.945312 L 381.671875 381.671875 Z M 358.398438 381.671875 "/>
</g>
</svg>
