<?xml version="1.0" encoding="UTF-8"?>
<svg xmlns="http://www.w3.org/2000/svg" xmlns:xlink="http://www.w3.org/1999/xlink" width="512px" height="512px" viewBox="0 0 512 512" version="1.1">
<g id="surface1">
<path style=" stroke:none;fill-rule:nonzero;fill:rgb(19.607843%,74.509804%,65.098039%);fill-opacity:1;" d="M 512 256 C 512 397.386719 397.386719 512 256 512 C 114.613281 512 0 397.386719 0 256 C 0 114.613281 114.613281 0 256 0 C 397.386719 0 512 114.613281 512 256 Z M 512 256 "/>
<path style=" stroke:none;fill-rule:nonzero;fill:rgb(100%,100%,100%);fill-opacity:1;" d="M 172.21875 125.671875 L 404.945312 125.671875 L 404.945312 404.945312 L 172.21875 404.945312 Z M 172.21875 125.671875 "/>
<path style=" stroke:none;fill-rule:nonzero;fill:rgb(98.431373%,88.235294%,34.509804%);fill-opacity:1;" d="M 305.914062 339.78125 C 305.914062 360.34375 322.589844 377.019531 343.152344 377.019531 C 363.714844 377.019531 382.324219 360.257812 380.386719 339.78125 C 378.417969 318.949219 362.269531 302.351562 343.152344 302.546875 C 322.589844 302.757812 305.914062 319.21875 305.914062 339.78125 Z M 305.914062 339.78125 "/>
<path style=" stroke:none;fill-rule:nonzero;fill:rgb(1.960784%,60.784314%,74.901961%);fill-opacity:1;" d="M 305.914062 339.78125 C 305.914062 360.355469 322.578125 377.019531 343.152344 377.019531 C 358.789062 377.019531 372.164062 367.398438 377.6875 353.746094 L 308.894531 325.105469 C 306.972656 329.601562 305.914062 334.570312 305.914062 339.78125 Z M 305.914062 339.78125 "/>
<path style=" stroke:none;fill-rule:nonzero;fill:rgb(29.019608%,76.470588%,68.627451%);fill-opacity:1;" d="M 305.859375 339.796875 C 305.859375 352.921875 312.65625 364.464844 322.925781 371.105469 L 343.066406 339.363281 L 308.84375 325.121094 C 306.917969 329.621094 305.859375 334.582031 305.859375 339.796875 Z M 305.859375 339.796875 "/>
<path style=" stroke:none;fill-rule:nonzero;fill:rgb(98.039216%,33.72549%,33.333333%);fill-opacity:1;" d="M 308.894531 325.105469 L 343.152344 339.382812 L 343.152344 302.546875 C 327.792969 302.546875 314.605469 311.855469 308.894531 325.105469 Z M 308.894531 325.105469 "/>
<path style=" stroke:none;fill-rule:nonzero;fill:rgb(29.019608%,76.470588%,68.627451%);fill-opacity:1;" d="M 358.398438 186.183594 L 377.019531 186.183594 L 377.019531 269.964844 L 358.398438 269.964844 Z M 358.398438 186.183594 "/>
<path style=" stroke:none;fill-rule:nonzero;fill:rgb(29.019608%,76.470588%,68.627451%);fill-opacity:1;" d="M 324.476562 223.417969 L 343.097656 223.417969 L 343.097656 269.964844 L 324.476562 269.964844 Z M 324.476562 223.417969 "/>
<path style=" stroke:none;fill-rule:nonzero;fill:rgb(81.176471%,82.745098%,83.137255%);fill-opacity:1;" d="M 287.804688 317.285156 C 287.804688 321.140625 284.679688 324.269531 280.824219 324.269531 C 276.964844 324.269531 273.839844 321.140625 273.839844 317.285156 C 273.839844 313.429688 276.964844 310.304688 280.824219 310.304688 C 284.679688 310.304688 287.804688 313.429688 287.804688 317.285156 Z M 287.804688 317.285156 "/>
<path style=" stroke:none;fill-rule:nonzero;fill:rgb(81.176471%,82.745098%,83.137255%);fill-opacity:1;" d="M 217.421875 314.960938 L 263.96875 314.960938 L 263.96875 319.613281 L 217.421875 319.613281 Z M 217.421875 314.960938 "/>
<path style=" stroke:none;fill-rule:nonzero;fill:rgb(81.176471%,82.745098%,83.137255%);fill-opacity:1;" d="M 287.804688 341.332031 C 287.804688 345.1875 284.679688 348.3125 280.824219 348.3125 C 276.964844 348.3125 273.839844 345.1875 273.839844 341.332031 C 273.839844 337.476562 276.964844 334.351562 280.824219 334.351562 C 284.679688 334.351562 287.804688 337.476562 287.804688 341.332031 Z M 287.804688 341.332031 "/>
<path style=" stroke:none;fill-rule:nonzero;fill:rgb(81.176471%,82.745098%,83.137255%);fill-opacity:1;" d="M 217.421875 339.003906 L 263.96875 339.003906 L 263.96875 343.660156 L 217.421875 343.660156 Z M 217.421875 339.003906 "/>
<path style=" stroke:none;fill-rule:nonzero;fill:rgb(81.176471%,82.745098%,83.137255%);fill-opacity:1;" d="M 287.804688 365.382812 C 287.804688 369.238281 284.679688 372.363281 280.824219 372.363281 C 276.964844 372.363281 273.839844 369.238281 273.839844 365.382812 C 273.839844 361.527344 276.964844 358.398438 280.824219 358.398438 C 284.679688 358.398438 287.804688 361.527344 287.804688 365.382812 Z M 287.804688 365.382812 "/>
<path style=" stroke:none;fill-rule:nonzero;fill:rgb(81.176471%,82.745098%,83.137255%);fill-opacity:1;" d="M 217.421875 363.054688 L 263.96875 363.054688 L 263.96875 367.710938 L 217.421875 367.710938 Z M 217.421875 363.054688 "/>
<path style=" stroke:none;fill-rule:nonzero;fill:rgb(51.764706%,27.45098%,17.647059%);fill-opacity:1;" d="M 184.980469 270.0625 L 134.722656 320.320312 C 128.464844 326.578125 118.328125 326.578125 112.066406 320.320312 C 105.808594 314.066406 105.8125 303.929688 112.066406 297.667969 L 162.445312 247.300781 C 168.019531 256.585938 175.746094 264.402344 184.980469 270.0625 Z M 184.980469 270.0625 "/>
<path style=" stroke:none;fill-rule:nonzero;fill:rgb(61.176471%,38.039216%,26.666667%);fill-opacity:1;" d="M 172.179688 259.84375 L 111.898438 320.125 C 105.8125 313.871094 105.867188 303.871094 112.039062 297.671875 L 162.445312 247.273438 C 165.183594 251.828125 168.472656 256.046875 172.179688 259.84375 Z M 172.179688 259.84375 "/>
<path style=" stroke:none;fill-rule:nonzero;fill:rgb(100%,100%,100%);fill-opacity:1;" d="M 220.625 279.738281 C 183.414062 279.738281 153.132812 249.460938 153.132812 212.246094 C 153.132812 175.035156 183.414062 144.757812 220.625 144.757812 C 257.839844 144.757812 288.117188 175.035156 288.117188 212.246094 C 288.117188 249.460938 257.84375 279.738281 220.625 279.738281 Z M 220.625 279.738281 "/>
<path style=" stroke:none;fill-rule:nonzero;fill:rgb(81.176471%,82.745098%,83.137255%);fill-opacity:1;" d="M 220.625 144.699219 C 257.917969 144.699219 288.171875 174.953125 288.171875 212.246094 C 288.171875 249.539062 257.917969 279.792969 220.625 279.792969 C 183.199219 279.792969 153.078125 249.253906 153.078125 212.246094 C 153.078125 174.953125 183.332031 144.699219 220.625 144.699219 M 220.625 135.449219 C 178.277344 135.449219 143.824219 169.898438 143.824219 212.246094 C 143.824219 254.59375 178.277344 289.046875 220.625 289.046875 C 262.972656 289.046875 297.425781 254.59375 297.425781 212.246094 C 297.425781 169.898438 262.976562 135.449219 220.625 135.449219 Z M 220.625 135.449219 "/>
<path style=" stroke:none;fill-rule:nonzero;fill:rgb(43.529412%,85.490196%,94.509804%);fill-opacity:1;" d="M 274.421875 212.246094 C 274.421875 241.957031 250.335938 266.042969 220.625 266.042969 C 190.914062 266.042969 166.828125 241.957031 166.828125 212.246094 C 166.828125 182.535156 190.914062 158.449219 220.625 158.449219 C 250.335938 158.449219 274.421875 182.535156 274.421875 212.246094 Z M 274.421875 212.246094 "/>
<path style=" stroke:none;fill-rule:nonzero;fill:rgb(61.176471%,89.803922%,95.686275%);fill-opacity:1;" d="M 220.625 158.449219 C 190.914062 158.449219 166.828125 182.539062 166.828125 212.246094 C 166.828125 226.945312 172.738281 240.257812 182.296875 249.96875 L 258.347656 173.917969 C 248.636719 164.355469 235.328125 158.449219 220.625 158.449219 Z M 220.625 158.449219 "/>
</g>
</svg>
