<?xml version="1.0" encoding="UTF-8"?>
<svg xmlns="http://www.w3.org/2000/svg" xmlns:xlink="http://www.w3.org/1999/xlink" width="512px" height="512px" viewBox="0 0 512 512" version="1.1">
<g id="surface1">
<path style=" stroke:none;fill-rule:nonzero;fill:rgb(98.039216%,73.72549%,23.921569%);fill-opacity:1;" d="M 512 256 C 512 397.386719 397.386719 512 256 512 C 114.613281 512 0 397.386719 0 256 C 0 114.613281 114.613281 0 256 0 C 397.386719 0 512 114.613281 512 256 Z M 512 256 "/>
<path style=" stroke:none;fill-rule:nonzero;fill:rgb(88.627451%,89.411765%,89.803922%);fill-opacity:1;" d="M 311.855469 316.496094 L 302.546875 311.839844 L 209.453125 311.839844 L 200.144531 316.496094 L 256 404.945312 Z M 311.855469 316.496094 "/>
<path style=" stroke:none;fill-rule:nonzero;fill:rgb(97.254902%,88.235294%,76.078431%);fill-opacity:1;" d="M 325.816406 209.453125 C 321.164062 209.453125 321.164062 214.625 321.164062 214.625 L 321.164062 209.453125 C 321.15625 204.496094 321.074219 199.746094 320.851562 195.203125 C 302.039062 176.878906 256 176.871094 256 176.871094 C 256 176.871094 209.960938 176.878906 191.148438 195.203125 C 190.925781 199.746094 190.84375 204.496094 190.835938 209.453125 L 190.835938 246.675781 L 209.453125 293.222656 L 233.214844 311.820312 C 235.863281 314.796875 239.65625 316.496094 243.640625 316.496094 L 268.359375 316.496094 C 272.34375 316.496094 276.136719 314.796875 278.785156 311.820312 L 302.546875 293.222656 L 317.472656 255.90625 C 330.667969 254.957031 335.128906 234.941406 335.128906 219.796875 C 335.128906 214.625 330.472656 209.453125 325.816406 209.453125 Z M 325.816406 209.453125 "/>
<path style=" stroke:none;fill-rule:nonzero;fill:rgb(98.823529%,94.509804%,88.627451%);fill-opacity:1;" d="M 190.835938 209.453125 L 190.835938 214.625 C 190.835938 214.625 190.835938 209.453125 186.183594 209.453125 C 181.527344 209.453125 176.871094 214.625 176.871094 219.796875 C 176.871094 234.9375 181.332031 254.957031 194.527344 255.90625 L 209.453125 293.222656 L 233.214844 311.820312 C 235.863281 314.796875 239.65625 316.496094 243.640625 316.496094 L 256 316.496094 L 256 176.871094 C 256 176.871094 209.960938 176.878906 191.148438 195.203125 C 190.925781 199.746094 190.84375 204.496094 190.835938 209.453125 Z M 190.835938 209.453125 "/>
<path style=" stroke:none;fill-rule:nonzero;fill:rgb(96.862745%,57.647059%,57.254902%);fill-opacity:1;" d="M 232.726562 265.296875 L 279.273438 265.296875 C 279.273438 265.296875 279.273438 279.257812 256 279.257812 C 232.726562 279.257812 232.726562 265.296875 232.726562 265.296875 Z M 232.726562 265.296875 "/>
<path style=" stroke:none;fill-rule:nonzero;fill:rgb(24.313725%,24.313725%,24.705882%);fill-opacity:1;" d="M 283.925781 220.261719 C 289.472656 220.261719 294.390625 221.5 297.800781 223.417969 C 298.132812 220.769531 297 218.046875 294.320312 216.015625 C 289.527344 212.382812 281.746094 212.382812 276.945312 216.015625 C 274.785156 217.65625 273.644531 219.746094 273.441406 221.882812 C 276.429688 220.863281 280.035156 220.261719 283.925781 220.261719 Z M 283.925781 220.261719 "/>
<path style=" stroke:none;fill-rule:nonzero;fill:rgb(24.313725%,24.313725%,24.705882%);fill-opacity:1;" d="M 228.039062 220.261719 C 222.496094 220.261719 217.578125 221.5 214.164062 223.417969 C 213.835938 220.769531 214.964844 218.046875 217.648438 216.015625 C 222.441406 212.382812 230.222656 212.382812 235.023438 216.015625 C 237.183594 217.65625 238.320312 219.746094 238.527344 221.882812 C 235.539062 220.863281 231.929688 220.261719 228.039062 220.261719 Z M 228.039062 220.261719 "/>
<path style=" stroke:none;fill-rule:nonzero;fill:rgb(95.686275%,81.568627%,63.137255%);fill-opacity:1;" d="M 268.359375 316.496094 L 243.640625 316.496094 C 239.65625 316.496094 235.863281 314.796875 233.214844 311.820312 L 209.453125 293.222656 L 209.453125 314.167969 C 209.453125 314.167969 209.453125 349.078125 256 349.078125 C 302.546875 349.078125 302.546875 314.167969 302.546875 314.167969 L 302.546875 293.222656 L 278.785156 311.820312 C 276.136719 314.796875 272.34375 316.496094 268.359375 316.496094 Z M 268.359375 316.496094 "/>
<path style=" stroke:none;fill-rule:nonzero;fill:rgb(24.313725%,24.313725%,24.705882%);fill-opacity:1;" d="M 256 176.871094 C 256 176.871094 252.472656 176.871094 246.980469 177.257812 C 246.980469 183.078125 246.980469 197.007812 246.980469 203.441406 C 264.289062 203.441406 274.777344 190.949219 280.835938 179.078125 C 267.21875 176.878906 256 176.871094 256 176.871094 Z M 256 176.871094 "/>
<path style=" stroke:none;fill-rule:nonzero;fill:rgb(24.313725%,24.313725%,24.705882%);fill-opacity:1;" d="M 213.730469 183.074219 C 204.902344 185.820312 196.550781 189.773438 190.835938 195.492188 C 190.835938 211.976562 201.648438 219.925781 201.648438 219.925781 C 200.28125 206.167969 200.207031 197.203125 213.730469 183.074219 Z M 213.730469 183.074219 "/>
<path style=" stroke:none;fill-rule:nonzero;fill:rgb(24.313725%,24.313725%,24.705882%);fill-opacity:1;" d="M 218.136719 181.816406 C 218.136719 186.257812 218.136719 194.84375 218.136719 203.445312 C 231.46875 203.445312 242.101562 184.574219 245.679688 177.363281 C 238.398438 177.925781 228.199219 179.152344 218.136719 181.816406 Z M 218.136719 181.816406 "/>
<path style=" stroke:none;fill-rule:nonzero;fill:rgb(24.313725%,24.313725%,24.705882%);fill-opacity:1;" d="M 308.800781 187.136719 C 308.800781 188.9375 308.800781 208.152344 308.800781 219.925781 C 320.382812 219.925781 321.117188 198.234375 321.160156 195.492188 C 317.804688 192.128906 313.535156 189.390625 308.800781 187.136719 Z M 308.800781 187.136719 "/>
<path style=" stroke:none;fill-rule:nonzero;fill:rgb(24.313725%,24.313725%,24.705882%);fill-opacity:1;" d="M 288.195312 180.460938 C 288.195312 188.351562 288.195312 196.875 288.195312 203.445312 C 303.808594 203.445312 308.328125 188.6875 308.757812 187.117188 C 302.398438 184.09375 295.195312 181.960938 288.195312 180.460938 Z M 288.195312 180.460938 "/>
<path style=" stroke:none;fill-rule:nonzero;fill:rgb(97.254902%,88.235294%,76.078431%);fill-opacity:1;" d="M 233.214844 311.820312 L 209.453125 293.222656 L 209.453125 314.167969 C 209.453125 314.167969 209.453125 349.078125 256 349.078125 L 256 316.496094 L 243.640625 316.496094 C 239.65625 316.496094 235.863281 314.796875 233.214844 311.820312 Z M 233.214844 311.820312 "/>
<path style=" stroke:none;fill-rule:nonzero;fill:rgb(98.039216%,33.72549%,33.333333%);fill-opacity:1;" d="M 160.539062 248.761719 L 160.539062 157.441406 C 157.296875 156.28125 154.171875 155.144531 151.230469 154.050781 L 151.230469 248.761719 C 139.082031 256.769531 146.578125 280.644531 146.578125 293.238281 C 151.207031 293.238281 153.761719 293.238281 155.148438 293.238281 C 155.449219 293.238281 155.691406 293.238281 155.886719 293.238281 C 156.492188 293.238281 156.667969 293.238281 156.621094 293.238281 C 158.003906 293.238281 160.5625 293.238281 165.195312 293.238281 C 165.195312 280.644531 172.691406 256.769531 160.539062 248.761719 Z M 160.539062 248.761719 "/>
<path style=" stroke:none;fill-rule:nonzero;fill:rgb(24.313725%,24.313725%,24.705882%);fill-opacity:1;" d="M 381.671875 144.289062 C 381.671875 139.636719 265.308594 107.054688 256 107.054688 C 246.691406 107.054688 130.328125 139.636719 130.328125 144.289062 C 130.328125 147.199219 164.917969 159.21875 190.835938 167.808594 C 190.835938 175.835938 190.835938 185.347656 190.835938 195.492188 C 209.453125 176.871094 256 176.871094 256 176.871094 C 256 176.871094 302.546875 176.871094 321.164062 195.492188 C 321.164062 185.34375 321.164062 175.835938 321.164062 167.808594 C 347.082031 159.21875 381.671875 147.199219 381.671875 144.289062 Z M 381.671875 144.289062 "/>
<path style=" stroke:none;fill-rule:nonzero;fill:rgb(100%,100%,100%);fill-opacity:1;" d="M 311.691406 316.785156 L 311.855469 316.507812 L 302.546875 311.855469 L 256.070312 335.039062 L 283.035156 362.15625 Z M 311.691406 316.785156 "/>
<path style=" stroke:none;fill-rule:nonzero;fill:rgb(87.45098%,17.254902%,17.254902%);fill-opacity:1;" d="M 274.617188 404.945312 L 261.589844 357.46875 L 269.964844 349.101562 L 255.910156 335.023438 L 241.957031 348.980469 L 250.417969 357.4375 L 237.382812 404.945312 Z M 274.617188 404.945312 "/>
<path style=" stroke:none;fill-rule:nonzero;fill:rgb(98.039216%,33.72549%,33.333333%);fill-opacity:1;" d="M 256 404.945312 L 256 335.113281 L 255.910156 335.023438 L 241.957031 348.980469 L 250.417969 357.4375 L 237.382812 404.945312 Z M 256 404.945312 "/>
<path style=" stroke:none;fill-rule:nonzero;fill:rgb(100%,100%,100%);fill-opacity:1;" d="M 200.308594 316.785156 L 200.144531 316.507812 L 209.453125 311.855469 L 255.929688 335.039062 L 228.964844 362.15625 Z M 200.308594 316.785156 "/>
<path style=" stroke:none;fill-rule:nonzero;fill:rgb(24.313725%,24.313725%,24.705882%);fill-opacity:1;" d="M 107.054688 404.945312 L 125.671875 353.746094 C 128.535156 347.539062 133.574219 342.601562 139.835938 339.859375 L 200.144531 316.507812 L 256 404.945312 Z M 107.054688 404.945312 "/>
<path style=" stroke:none;fill-rule:nonzero;fill:rgb(24.313725%,24.313725%,24.705882%);fill-opacity:1;" d="M 404.945312 404.945312 L 386.328125 353.746094 C 383.464844 347.539062 378.425781 342.601562 372.164062 339.859375 L 311.855469 316.507812 L 256 404.945312 Z M 404.945312 404.945312 "/>
<path style=" stroke:none;fill-rule:nonzero;fill:rgb(61.960784%,62.352941%,62.745098%);fill-opacity:1;" d="M 256 404.945312 L 200.144531 316.507812 L 158.253906 330.472656 L 237.382812 404.945312 Z M 256 404.945312 "/>
<path style=" stroke:none;fill-rule:nonzero;fill:rgb(61.960784%,62.352941%,62.745098%);fill-opacity:1;" d="M 256 404.945312 L 311.855469 316.507812 L 353.746094 330.472656 L 274.617188 404.945312 Z M 256 404.945312 "/>
</g>
</svg>
