<?xml version="1.0" encoding="UTF-8"?>
<svg xmlns="http://www.w3.org/2000/svg" xmlns:xlink="http://www.w3.org/1999/xlink" width="512px" height="512px" viewBox="0 0 512 512" version="1.1">
<g id="surface1">
<path style=" stroke:none;fill-rule:nonzero;fill:rgb(98.039216%,73.72549%,23.921569%);fill-opacity:1;" d="M 512 256 C 512 397.386719 397.386719 512 256 512 C 114.613281 512 0 397.386719 0 256 C 0 114.613281 114.613281 0 256 0 C 397.386719 0 512 114.613281 512 256 Z M 512 256 "/>
<path style=" stroke:none;fill-rule:nonzero;fill:rgb(94.509804%,94.901961%,94.901961%);fill-opacity:1;" d="M 256 404.945312 L 200.144531 316.496094 L 311.855469 316.496094 Z M 256 404.945312 "/>
<path style=" stroke:none;fill-rule:nonzero;fill:rgb(96.862745%,70.588235%,70.588235%);fill-opacity:1;" d="M 274.617188 316.652344 L 237.382812 316.652344 L 209.453125 299.191406 L 209.453125 314.167969 C 209.453125 314.167969 209.453125 349.078125 256 349.078125 C 302.546875 349.078125 302.546875 314.167969 302.546875 314.167969 L 302.546875 299.183594 Z M 274.617188 316.652344 "/>
<path style=" stroke:none;fill-rule:nonzero;fill:rgb(98.431373%,78.431373%,78.431373%);fill-opacity:1;" d="M 335.128906 219.796875 C 335.128906 214.625 330.472656 209.453125 325.816406 209.453125 C 321.164062 209.453125 321.164062 214.625 321.164062 214.625 L 321.164062 209.453125 C 321.078125 167.5625 316.398438 139.636719 256 139.636719 C 195.601562 139.636719 190.921875 167.5625 190.835938 209.453125 L 190.835938 246.675781 L 209.453125 293.222656 L 233.214844 311.820312 C 235.863281 314.796875 239.65625 316.496094 243.640625 316.496094 L 268.359375 316.496094 C 272.34375 316.496094 276.136719 314.796875 278.785156 311.820312 L 302.546875 293.222656 L 317.472656 255.90625 C 330.667969 254.957031 335.128906 234.941406 335.128906 219.796875 Z M 335.128906 219.796875 "/>
<path style=" stroke:none;fill-rule:nonzero;fill:rgb(98.431373%,84.313725%,84.313725%);fill-opacity:1;" d="M 190.835938 209.453125 L 190.835938 214.625 C 190.835938 214.625 190.835938 209.453125 186.183594 209.453125 C 181.527344 209.453125 176.871094 214.625 176.871094 219.796875 C 176.871094 234.9375 181.332031 254.957031 194.527344 255.90625 L 209.453125 293.222656 L 233.214844 311.820312 C 235.863281 314.796875 239.65625 316.496094 243.640625 316.496094 L 256 316.496094 L 256 139.636719 C 195.601562 139.636719 190.921875 167.5625 190.835938 209.453125 Z M 190.835938 209.453125 "/>
<path style=" stroke:none;fill-rule:nonzero;fill:rgb(98.431373%,78.431373%,78.431373%);fill-opacity:1;" d="M 223.417969 279.417969 L 223.46875 279.257812 L 218.679688 279.257812 L 218.761719 279.417969 Z M 223.417969 279.417969 "/>
<path style=" stroke:none;fill-rule:nonzero;fill:rgb(98.431373%,78.431373%,78.431373%);fill-opacity:1;" d="M 256 316.652344 L 237.382812 316.652344 L 209.453125 299.191406 L 209.453125 314.167969 C 209.453125 314.167969 209.453125 349.078125 256 349.078125 Z M 256 316.652344 "/>
<path style=" stroke:none;fill-rule:nonzero;fill:rgb(41.176471%,18.039216%,9.803922%);fill-opacity:1;" d="M 315.609375 159.53125 C 316.066406 157.589844 316.289062 155.621094 316.289062 153.65625 C 316.289062 140.425781 312.0625 131.394531 256 130.511719 L 256 130.402344 C 253.050781 130.355469 250 130.328125 246.761719 130.328125 C 188.527344 130.328125 186.054688 167.46875 186.1875 175.378906 C 186.199219 176.324219 186.25 176.878906 186.25 176.878906 C 186.25 176.878906 186.25 200.242188 186.25 209.535156 C 186.25 209.550781 186.25 209.582031 186.25 209.597656 C 186.25 209.597656 190.90625 218.90625 195.5625 228.21875 L 195.5625 260.800781 L 200.140625 293.367188 L 237.378906 316.652344 L 274.613281 316.652344 L 311.851562 293.367188 L 316.429688 260.800781 L 316.429688 228.21875 L 316.574219 228.21875 L 325.882812 209.597656 L 325.882812 186.183594 C 325.886719 176.980469 322.445312 167.820312 315.609375 159.53125 Z M 293.230469 279.417969 L 288.578125 279.417969 L 279.269531 251.488281 L 232.722656 251.488281 L 223.414062 279.417969 L 218.757812 279.417969 L 204.796875 251.488281 L 204.796875 175.351562 C 220.335938 185.804688 236.503906 186.390625 255.996094 186.308594 L 255.996094 186.292969 C 268.117188 186.238281 292.730469 186.4375 307.195312 173.320312 L 307.195312 251.480469 Z M 293.230469 279.417969 "/>
<path style=" stroke:none;fill-rule:nonzero;fill:rgb(51.764706%,27.45098%,17.647059%);fill-opacity:1;" d="M 256 186.3125 L 256 130.402344 C 253.054688 130.355469 250.003906 130.328125 246.765625 130.328125 C 181.601562 130.328125 186.257812 176.871094 186.257812 176.871094 C 186.257812 176.871094 186.257812 200.289062 186.257812 209.597656 C 186.257812 209.597656 190.910156 218.90625 195.566406 228.21875 L 195.566406 260.800781 L 200.144531 293.367188 L 237.382812 316.652344 L 256 316.652344 L 256 251.488281 L 232.726562 251.488281 L 223.417969 279.417969 L 218.761719 279.417969 L 204.800781 251.488281 L 204.800781 175.3125 C 214.988281 182.164062 223.121094 186.4375 256 186.3125 Z M 256 186.3125 "/>
<path style=" stroke:none;fill-rule:nonzero;fill:rgb(24.313725%,24.313725%,24.705882%);fill-opacity:1;" d="M 242.035156 218.75 C 242.035156 213.609375 237.867188 209.441406 232.726562 209.441406 C 232.71875 209.441406 232.707031 209.441406 232.699219 209.441406 C 232.703125 209.542969 232.726562 209.636719 232.726562 209.734375 C 232.726562 214.867188 228.574219 219.023438 223.445312 219.042969 C 223.601562 224.046875 227.683594 228.0625 232.726562 228.0625 C 237.867188 228.058594 242.035156 223.894531 242.035156 218.75 Z M 242.035156 218.75 "/>
<path style=" stroke:none;fill-rule:nonzero;fill:rgb(24.313725%,24.313725%,24.705882%);fill-opacity:1;" d="M 288.554688 218.75 C 288.554688 213.609375 284.382812 209.441406 279.246094 209.441406 C 279.234375 209.441406 279.226562 209.441406 279.21875 209.441406 C 279.222656 209.539062 279.246094 209.632812 279.246094 209.730469 C 279.246094 214.863281 275.09375 219.019531 269.964844 219.039062 C 270.117188 224.042969 274.199219 228.058594 279.246094 228.058594 C 284.382812 228.058594 288.554688 223.894531 288.554688 218.75 Z M 288.554688 218.75 "/>
<path style=" stroke:none;fill-rule:nonzero;fill:rgb(100%,100%,100%);fill-opacity:1;" d="M 200.144531 316.496094 L 209.453125 311.839844 L 255.929688 335.023438 L 228.074219 363.039062 Z M 200.144531 316.496094 "/>
<path style=" stroke:none;fill-rule:nonzero;fill:rgb(100%,100%,100%);fill-opacity:1;" d="M 311.855469 316.496094 L 302.546875 311.839844 L 256.070312 335.023438 L 283.925781 363.039062 Z M 311.855469 316.496094 "/>
<path style=" stroke:none;fill-rule:nonzero;fill:rgb(3.529412%,58.823529%,52.54902%);fill-opacity:1;" d="M 274.617188 404.945312 L 261.589844 357.46875 L 269.964844 349.101562 L 255.910156 335.023438 L 241.957031 348.980469 L 250.417969 357.4375 L 237.382812 404.945312 Z M 274.617188 404.945312 "/>
<path style=" stroke:none;fill-rule:nonzero;fill:rgb(7.058824%,69.803922%,62.745098%);fill-opacity:1;" d="M 256 404.945312 L 256 335.113281 L 255.910156 335.023438 L 241.957031 348.980469 L 250.417969 357.4375 L 237.382812 404.945312 Z M 256 404.945312 "/>
<path style=" stroke:none;fill-rule:nonzero;fill:rgb(24.313725%,24.313725%,24.705882%);fill-opacity:1;" d="M 107.054688 404.945312 L 125.671875 353.746094 C 128.535156 347.539062 133.574219 342.601562 139.835938 339.859375 L 200.144531 316.507812 L 256 404.945312 Z M 107.054688 404.945312 "/>
<path style=" stroke:none;fill-rule:nonzero;fill:rgb(24.313725%,24.313725%,24.705882%);fill-opacity:1;" d="M 404.945312 404.945312 L 386.328125 353.746094 C 383.464844 347.539062 378.425781 342.601562 372.164062 339.859375 L 311.855469 316.507812 L 256 404.945312 Z M 404.945312 404.945312 "/>
<path style=" stroke:none;fill-rule:nonzero;fill:rgb(100%,100%,100%);fill-opacity:1;" d="M 307.199219 372.351562 L 353.746094 372.351562 L 353.746094 381.660156 L 307.199219 381.660156 Z M 307.199219 372.351562 "/>
<path style=" stroke:none;fill-rule:nonzero;fill:rgb(98.431373%,78.431373%,78.431373%);fill-opacity:1;" d="M 237.382812 265.296875 L 274.617188 265.296875 C 274.617188 265.296875 274.617188 283.925781 256 283.925781 C 237.382812 283.925781 237.382812 265.296875 237.382812 265.296875 Z M 237.382812 265.296875 "/>
</g>
</svg>
